<?xml version="1.0" encoding="UTF-8"?>
<svg id="Layer_2" data-name="Layer 2" xmlns="http://www.w3.org/2000/svg" viewBox="0 0 494.21 494.2">
  <defs>
    <style>
      .cls-1 {
        fill: #fff;
      }
    </style>
  </defs>
  <g id="Layer_7" data-name="Layer 7">
    <g id="leyer_bulat" data-name="leyer bulat">
      <path class="cls-1" d="M494.21,247.1c0,136.47-110.63,247.1-247.11,247.1-62.65,0-119.86-23.32-163.42-61.75l31.39-15.18c.06-.03.12-.06.17-.1,38.81-28.68,100.67,7.9,115.06-5.67,14.41-13.59,20.48-1.05,21.88,3.66,1.28,4.28,4.3,2.18,4.82,1.77.06-.04.12-.08.18-.11,12.5-6.64,22.7,1.7,25.41,4.26.4.39,1.02.42,1.47.1,5.52-3.99,9.3,1.95,10.38,3.98.21.39.64.62,1.08.62,9.21-.09,13.55,7.36,14.98,10.54.3.68,1.14.9,1.75.47,3.31-2.35,7.29-3.02,10.09-3.17,1.1-.05,1.52-1.43.66-2.11-31.72-24.72-59.24-58.96-81.48-92.71-.38-.57-.19-1.34.4-1.68l10.34-5.99c.42-.25.95-.21,1.33.1,5.74,4.62,11.48,9.23,17.2,13.87.15.1.31.22.49.23.2,0,.37-.16.52-.31,2.76-2.74,5.53-5.48,8.3-8.22,11.51-11.39,23.02-22.77,34.52-34.16l21.14-20.91c.08-.08.17-.16.26-.24,43.73-37.78,47.61-85.36,47.61-85.36l3.56-102.63c.17-4.85-5.57-7.51-9.16-4.24l-2.53,2.31c-1.88,1.71-4.7,1.9-6.8.45-40.43-28.1-70.94,6.59-78.57,16.65-1.17,1.55-1.43,3.6-.69,5.39l29.28,70.9c.6,1.45.54,3.11-.15,4.52-2.21,4.47-4.44,8.94-6.65,13.42-3.74,7.53-7.47,15.07-11.21,22.6-1.65,3.33-3.3,6.67-4.96,10-1.72,3.48-2.64,7.4-5.91,9.87-2.16,1.64-4.84,2.22-7.39,2.99-2.63.8-4.95,2.15-7.52,3.11-4.31,1.6-8.63,3.2-12.94,4.82-4.34,1.62-8.69,3.23-13.03,4.85-1.88.7-3.76,1.4-5.63,2.1-1.21.46-4.75,2.53-5.95,2.23-.37.14-.74.28-1.13.25-.35-.03-1.28-.58-2.37-1.36-3.14-2.23-7.58-.66-8.51,3.09-.19.8-.36,1.59-.51,2.39-1.33,6.91-1.38,14.08-.89,21.13.04.47-.22.92-.64,1.13l-6.68,3.36c-.57.28-1.27.07-1.58-.49-20.57-37.15-33.11-67.43-35.88-74.31-.29-.73-1.21-.98-1.82-.48-10.33,8.5-15.72,19.81-16.83,22.3-.14.32-.42.55-.75.65-6.53,2.03-3.82,7.53-2.92,9.06.16.27.21.59.13.89-5.62,23.66-12.48,20.3-14.68,18.43-.44-.37-1.08-.36-1.52.01-1.14.96-3.2,2.36-4.07.81-1.24-2.19-1.76-11.28,3.51-14.83,1.45-.98,2.6-1.35,3.52-1.35,2.41,0,3.21,2.57,3.71,3.4.49.79,1.66.7,2.03-.16,5.44-12.61-5.08-12.15-5.08-12.15-17.17.85-27.72,26.22-29.92,32.04-.24.64-.97.94-1.75.58l-.92-.42c-.76-.34-1.63.19-1.67,1.02-.57,12.02-5.78,18.39-8.18,20.71-.57.55-1.51.4-1.88-.31l-.77-1.5c-.49-.95-1.88-.81-2.18.21-8.67,29.46-44.51,49.81-69.72,60.8C9.9,326.44,0,287.93,0,247.1,0,110.63,110.63,0,247.1,0s247.11,110.63,247.11,247.1Z"/>
    </g>
  </g>
</svg>